<?xml version="1.0" encoding="utf-8"?>
<!-- Generator: Adobe Illustrator 16.0.0, SVG Export Plug-In . SVG Version: 6.00 Build 0)  -->
<!DOCTYPE svg PUBLIC "-//W3C//DTD SVG 1.1//EN" "http://www.w3.org/Graphics/SVG/1.1/DTD/svg11.dtd">
<svg version="1.1" id="Layer_1" xmlns="http://www.w3.org/2000/svg" xmlns:xlink="http://www.w3.org/1999/xlink" x="0px" y="0px"
	 width="586.737px" height="734px" viewBox="33.5 33.5 586.737 734" enable-background="new 33.5 33.5 586.737 734"
	 xml:space="preserve">
<path d="M620.237,767.5L383.103,266.097l1.18-198.793h27.535c9.204,0,9.915-7.438,9.915-16.651v-0.501
	c0-9.188-7.447-16.652-16.651-16.652h-20.798H261.02h-19.033c-9.204,0-16.653,7.464-16.653,16.652v0.501
	c0,9.213,7.449,16.651,16.653,16.651h19.033v199.941L33.5,767.5c110.955,0,19.001,0,110.955,0h375.728
	C612.128,767.5,505.237,767.5,620.237,767.5z M275.83,296.721l6.88-13.938v-15.538V67.304h80.577v199.941v16.668l7.856,14.71
	l90.073,168.716H191.619L275.83,296.721z"/>
<path fill="#933EC5" d="M461.216,467.34H325.76H191.619L70,740.5c28.677,0,255.76,0,255.76,0s222.063,0,250.74,0L461.216,467.34z"/>
<g>
	<g>
		<ellipse fill="#B87FD9" cx="246.099" cy="564.313" rx="14.921" ry="15.187"/>
	</g>
	<ellipse fill="#6D2C93" cx="331.979" cy="391.91" rx="14.921" ry="15.187"/>
	<g>
		<ellipse fill="#B87FD9" cx="391.02" cy="648.406" rx="14.922" ry="15.187"/>
	</g>
</g>
</svg>
