<?xml version="1.0" encoding="utf-8"?>
<!-- Generator: Adobe Illustrator 16.0.0, SVG Export Plug-In . SVG Version: 6.00 Build 0)  -->
<!DOCTYPE svg PUBLIC "-//W3C//DTD SVG 1.1//EN" "http://www.w3.org/Graphics/SVG/1.1/DTD/svg11.dtd">
<svg version="1.1" id="Layer_1" xmlns="http://www.w3.org/2000/svg" xmlns:xlink="http://www.w3.org/1999/xlink" x="0px" y="0px"
	 width="663.957px" height="799.306px" viewBox="0 0.347 663.957 799.306" enable-background="new 0 0.347 663.957 799.306"
	 xml:space="preserve">
<path d="M640.114,660.986L429.896,267.229V67.304h20.799c9.204,0,16.65-7.438,16.65-16.651V16.999
	c0-9.188-7.446-16.652-16.65-16.652h-20.799H216.1h-19.033c-9.204,0-16.653,7.464-16.653,16.652v33.654
	c0,9.213,7.449,16.651,16.653,16.651H216.1v199.941L22.6,659.279c-49.469,77.536-15.019,140.374,76.935,140.374h466.262
	C657.742,799.653,691.014,737.566,640.114,660.986z M275.83,296.721l6.88-13.938v-15.538V67.304h80.577v199.941v16.668l7.856,14.71
	l90.073,168.716H191.619L275.83,296.721z"/>
<path fill="#933EC5" d="M461.216,467.34H325.76H191.619c0,0-143.652,273.16-109.996,273.16c28.677,0,244.137,0,244.137,0
	s215.459,0,244.137,0C603.553,740.5,461.216,467.34,461.216,467.34z"/>
<g>
	<g>
		<ellipse fill="#B87FD9" cx="246.099" cy="564.313" rx="14.921" ry="15.187"/>
	</g>
	<ellipse fill="#6D2C93" cx="331.979" cy="391.91" rx="14.921" ry="15.187"/>
	<g>
		<ellipse fill="#B87FD9" cx="391.02" cy="648.406" rx="14.922" ry="15.187"/>
	</g>
</g>
</svg>
